<?xml version="1.0" encoding="utf-8"?>
<!-- Generator: Adobe Illustrator 16.0.0, SVG Export Plug-In . SVG Version: 6.00 Build 0)  -->
<!DOCTYPE svg PUBLIC "-//W3C//DTD SVG 1.1//EN" "http://www.w3.org/Graphics/SVG/1.1/DTD/svg11.dtd">
<svg version="1.1" id="Layer_1" xmlns="http://www.w3.org/2000/svg" xmlns:xlink="http://www.w3.org/1999/xlink" x="0px" y="0px"
	 width="512px" height="512px" viewBox="0 0 512 512" enable-background="new 0 0 512 512" xml:space="preserve">
<g>
	<g>
		<defs>
			<rect id="SVGID_1_" x="76" y="70.111" width="360" height="371.777"/>
		</defs>
		<clipPath id="SVGID_2_">
			<use xlink:href="#SVGID_1_"  overflow="visible"/>
		</clipPath>
		<path clip-path="url(#SVGID_2_)" fill="none" stroke="#000000" stroke-width="5" stroke-miterlimit="10" d="M133.953,187.057
			c1.611,1.868,1.402,4.691-0.47,6.3L119.95,205.03c-1.872,1.612-4.693,1.402-6.306-0.465l-32.093-37.231
			c-1.608-1.872-1.403-4.693,0.469-6.306l13.541-11.667c1.868-1.614,4.688-1.402,6.299,0.465L133.953,187.057z"/>
	</g>
	<g>
		<defs>
			<rect id="SVGID_3_" x="76" y="70.111" width="360" height="371.777"/>
		</defs>
		<clipPath id="SVGID_4_">
			<use xlink:href="#SVGID_3_"  overflow="visible"/>
		</clipPath>
		<path clip-path="url(#SVGID_4_)" fill="none" stroke="#000000" stroke-width="5" stroke-miterlimit="10" d="M183.112,86.676
			c0,0,45.432-32.276,80.683,8.62c0,0-34.482-9.776-61.704,13.395l8.248,9.567c1.614,1.872,4.554,4.925,2.686,6.537l-42.306,36.468
			c0,0-24.243-2.81-31.19-0.251c-11.528,4.255-11.408,19.272-11.408,19.272l-21.883-25.379c0,0,15.286,5.058,21.073-5.782
			c3.794-7.106,5.479-31.855,5.479-31.855l42.309-36.472c1.868-1.615,1.536-1.637,3.151,0.235L183.112,86.676z"/>
	</g>
	<g>
		<defs>
			
				<rect id="SVGID_5_" x="124.643" y="13.347" transform="matrix(-0.7574 0.6529 -0.6529 -0.7574 665.4579 151.2263)" width="359.987" height="371.765"/>
		</defs>
		<clipPath id="SVGID_6_">
			<use xlink:href="#SVGID_5_"  overflow="visible"/>
		</clipPath>
		
			<rect x="192.741" y="139.803" transform="matrix(-0.7574 0.6529 -0.6529 -0.7574 464.2277 151.8203)" clip-path="url(#SVGID_6_)" fill="none" stroke="#000000" stroke-width="5" stroke-miterlimit="10" width="22.341" height="44.684"/>
	</g>
	<g>
		<defs>
			<rect id="SVGID_7_" x="76" y="70.111" width="360" height="371.777"/>
		</defs>
		<clipPath id="SVGID_8_">
			<use xlink:href="#SVGID_7_"  overflow="visible"/>
		</clipPath>
		<path clip-path="url(#SVGID_8_)" fill="none" stroke="#000000" stroke-width="5" stroke-miterlimit="10" d="M383.229,414.637
			L206.716,209.875c-6.443-7.479-2.457-18.53,5.021-24.974l16.924-14.59c7.475-6.443,15.612-5.841,22.057,1.636l176.516,204.765
			L383.229,414.637z"/>
	</g>
	<g>
		<defs>
			<rect id="SVGID_9_" x="76" y="70.111" width="360" height="371.777"/>
		</defs>
		<clipPath id="SVGID_10_">
			<use xlink:href="#SVGID_9_"  overflow="visible"/>
		</clipPath>
		<polygon clip-path="url(#SVGID_10_)" fill="none" stroke="#000000" stroke-width="5" stroke-miterlimit="10" points="
			122.775,370.288 163.737,333.794 192.782,365.818 154.425,404.173 		"/>
	</g>
	<g>
		<defs>
			<rect id="SVGID_11_" x="76" y="70.111" width="360" height="371.777"/>
		</defs>
		<clipPath id="SVGID_12_">
			<use xlink:href="#SVGID_11_"  overflow="visible"/>
		</clipPath>
		<polygon clip-path="url(#SVGID_12_)" fill="none" stroke="#000000" stroke-width="5" stroke-miterlimit="10" points="
			204.569,349.611 161.13,311.081 165.232,307.21 165.326,307.127 164.853,306.611 92.057,373.641 150.424,435.456 219.454,365.448 
			216.543,360.234 214.381,358.318 214.381,360.234 		"/>
	</g>
	<g>
		<defs>
			<rect id="SVGID_13_" x="76" y="70.111" width="360" height="371.777"/>
		</defs>
		<clipPath id="SVGID_14_">
			<use xlink:href="#SVGID_13_"  overflow="visible"/>
		</clipPath>
		<polygon clip-path="url(#SVGID_14_)" fill="none" stroke="#000000" stroke-width="5" stroke-miterlimit="10" points="
			272.469,286.107 233.799,242.549 165.324,307.123 204.567,349.611 214.379,358.314 214.379,338.639 236.721,342.359 
			236.721,324.486 259.81,324.486 259.435,301.396 272.469,302.145 		"/>
	</g>
	<g>
		<defs>
			<rect id="SVGID_15_" x="76" y="70.111" width="360" height="371.777"/>
		</defs>
		<clipPath id="SVGID_16_">
			<use xlink:href="#SVGID_15_"  overflow="visible"/>
		</clipPath>
		<polygon clip-path="url(#SVGID_16_)" fill="none" stroke="#000000" stroke-width="5" stroke-miterlimit="10" points="
			386.974,98.085 276.178,202.574 316.481,246.746 317.153,244.057 332.793,244.057 334.656,218.733 348.433,217.245 
			348.433,200.113 366.307,194.903 366.307,177.029 384.927,177.4 384.181,159.155 405.034,159.155 408.338,136.625 
			425.052,137.184 		"/>
	</g>
</g>
</svg>
